<svg width="860" height="160" viewBox="0 0 860 160" xmlns="http://www.w3.org/2000/svg">
  <defs>
    <linearGradient id="bg" x1="0" y1="0" x2="860" y2="160" gradientUnits="userSpaceOnUse">
      <stop offset="0%" stop-color="#0a0a0a"/><stop offset="100%" stop-color="#0f0a0a"/>
    </linearGradient>
    <linearGradient id="area" x1="0" y1="0" x2="0" y2="1">
      <stop offset="0%" stop-color="#e8290b" stop-opacity="0.35"/>
      <stop offset="100%" stop-color="#e8290b" stop-opacity="0"/>
    </linearGradient>
  </defs>
  <rect width="860" height="160" fill="url(#bg)" rx="4"/>
  <rect width="860" height="160" fill="none" stroke="#1a1a1a" stroke-width="1" rx="4"/>
  <text x="32" y="22" font-family="'Courier New',monospace" font-size="8" fill="#444" letter-spacing="2.5">CONTRIBUTION ACTIVITY · LAST 52 WEEKS</text>
  <rect x="32" y="28" width="796" height="1" fill="#1a1a1a"/>
  <line x1="32" y1="50" x2="828" y2="50" stroke="#111" stroke-width=".5"/>
  <line x1="32" y1="90" x2="828" y2="90" stroke="#111" stroke-width=".5"/>
  <line x1="32" y1="130" x2="828" y2="130" stroke="#111" stroke-width=".5"/>
  <text x="32.0" y="44" font-family="'Courier New',monospace" font-size="7" fill="#333">Mar</text>
  <text x="63.2" y="44" font-family="'Courier New',monospace" font-size="7" fill="#333">Apr</text>
  <text x="125.6" y="44" font-family="'Courier New',monospace" font-size="7" fill="#333">May</text>
  <text x="188.1" y="44" font-family="'Courier New',monospace" font-size="7" fill="#333">Jun</text>
  <text x="266.1" y="44" font-family="'Courier New',monospace" font-size="7" fill="#333">Jul</text>
  <text x="328.5" y="44" font-family="'Courier New',monospace" font-size="7" fill="#333">Aug</text>
  <text x="406.6" y="44" font-family="'Courier New',monospace" font-size="7" fill="#333">Sep</text>
  <text x="469.0" y="44" font-family="'Courier New',monospace" font-size="7" fill="#333">Oct</text>
  <text x="531.5" y="44" font-family="'Courier New',monospace" font-size="7" fill="#333">Nov</text>
  <text x="609.5" y="44" font-family="'Courier New',monospace" font-size="7" fill="#333">Dec</text>
  <text x="671.9" y="44" font-family="'Courier New',monospace" font-size="7" fill="#333">Jan</text>
  <text x="734.4" y="44" font-family="'Courier New',monospace" font-size="7" fill="#333">Feb</text>
  <text x="796.8" y="44" font-family="'Courier New',monospace" font-size="7" fill="#333">Mar</text>
  
  <polygon points="32.0,130 32.0,130.0 47.6,130.0 63.2,130.0 78.8,130.0 94.4,130.0 110.0,130.0 125.6,130.0 141.3,122.9 156.9,130.0 172.5,130.0 188.1,130.0 203.7,128.6 219.3,130.0 234.9,130.0 250.5,130.0 266.1,130.0 281.7,130.0 297.3,130.0 312.9,130.0 328.5,130.0 344.2,130.0 359.8,130.0 375.4,130.0 391.0,130.0 406.6,130.0 422.2,130.0 437.8,130.0 453.4,130.0 469.0,130.0 484.6,130.0 500.2,130.0 515.8,130.0 531.5,130.0 547.1,130.0 562.7,130.0 578.3,130.0 593.9,130.0 609.5,130.0 625.1,130.0 640.7,130.0 656.3,130.0 671.9,130.0 687.5,130.0 703.1,130.0 718.7,130.0 734.4,130.0 750.0,128.6 765.6,91.4 781.2,50.0 796.8,92.9 812.4,130.0 828.0,130.0 828.0,130" fill="url(#area)"/>
  <polyline points="32.0,130.0 47.6,130.0 63.2,130.0 78.8,130.0 94.4,130.0 110.0,130.0 125.6,130.0 141.3,122.9 156.9,130.0 172.5,130.0 188.1,130.0 203.7,128.6 219.3,130.0 234.9,130.0 250.5,130.0 266.1,130.0 281.7,130.0 297.3,130.0 312.9,130.0 328.5,130.0 344.2,130.0 359.8,130.0 375.4,130.0 391.0,130.0 406.6,130.0 422.2,130.0 437.8,130.0 453.4,130.0 469.0,130.0 484.6,130.0 500.2,130.0 515.8,130.0 531.5,130.0 547.1,130.0 562.7,130.0 578.3,130.0 593.9,130.0 609.5,130.0 625.1,130.0 640.7,130.0 656.3,130.0 671.9,130.0 687.5,130.0 703.1,130.0 718.7,130.0 734.4,130.0 750.0,128.6 765.6,91.4 781.2,50.0 796.8,92.9 812.4,130.0 828.0,130.0" fill="none" stroke="#e8290b" stroke-width="1.5" stroke-linejoin="round"/>
  <circle cx="781.2" cy="50.0" r="4" fill="#e8290b"/>
  <circle cx="781.2" cy="50.0" r="9" fill="#e8290b" opacity=".18"/>
  <text x="793.2" y="54.0" font-family="'Courier New',monospace" font-size="7" fill="#e8290b">peak: 56</text>
  <text x="20" y="54" font-family="'Courier New',monospace" font-size="6.5" fill="#333" text-anchor="end">56</text>
  <text x="20" y="94" font-family="'Courier New',monospace" font-size="6.5" fill="#333" text-anchor="end">28</text>
  <text x="20" y="134" font-family="'Courier New',monospace" font-size="6.5" fill="#333" text-anchor="end">0</text>
  <rect x="0" y="156" width="860" height="4" rx="2" fill="#e8290b" opacity=".6"/>
</svg>