<svg width="860" height="210" viewBox="0 0 860 210" xmlns="http://www.w3.org/2000/svg">
  <defs>
    <linearGradient id="bg" x1="0" y1="0" x2="860" y2="210" gradientUnits="userSpaceOnUse">
      <stop offset="0%" stop-color="#0a0a0a"/>
      <stop offset="100%" stop-color="#0f0a0a"/>
    </linearGradient>
    <linearGradient id="barRed" x1="0" y1="0" x2="1" y2="0">
      <stop offset="0%" stop-color="#e8290b"/>
      <stop offset="100%" stop-color="#c0200a"/>
    </linearGradient>
  </defs>

  <rect width="860" height="210" fill="url(#bg)" rx="4"/>
  <rect width="860" height="210" fill="none" stroke="#1a1a1a" stroke-width="1" rx="4"/>

  <!-- dividers -->
  <line x1="290" y1="16" x2="290" y2="194" stroke="#1a1a1a" stroke-width="1"/>
  <line x1="580" y1="16" x2="580" y2="194" stroke="#1a1a1a" stroke-width="1"/>

  <!-- ═══ BLOCK 1: Contributions ═══ -->
  <text x="28" y="36" font-family="'Courier New',monospace" font-size="8" fill="#444" letter-spacing="2.5">CONTRIBUTIONS</text>
  <text x="28" y="96" font-family="Georgia,serif" font-size="62" fill="#f4f3ef" font-weight="700">112</text>
  <text x="28" y="116" font-family="'Courier New',monospace" font-size="8" fill="#555">Jan 2021 – today</text>
  <rect x="28" y="143" width="8" height="2" fill="#e8290b" opacity="0.30" rx="1"/>
  <rect x="39" y="143" width="8" height="2" fill="#e8290b" opacity="0.30" rx="1"/>
  <rect x="50" y="143" width="8" height="2" fill="#e8290b" opacity="0.30" rx="1"/>
  <rect x="61" y="143" width="8" height="2" fill="#e8290b" opacity="0.30" rx="1"/>
  <rect x="72" y="143" width="8" height="2" fill="#e8290b" opacity="0.30" rx="1"/>
  <rect x="83" y="143" width="8" height="2" fill="#e8290b" opacity="0.30" rx="1"/>
  <rect x="94" y="143" width="8" height="2" fill="#e8290b" opacity="0.30" rx="1"/>
  <rect x="105" y="143" width="8" height="2" fill="#e8290b" opacity="0.30" rx="1"/>
  <rect x="116" y="143" width="8" height="2" fill="#e8290b" opacity="0.30" rx="1"/>
  <rect x="127" y="143" width="8" height="2" fill="#e8290b" opacity="0.30" rx="1"/>
  <rect x="138" y="143" width="8" height="2" fill="#e8290b" opacity="0.30" rx="1"/>
  <rect x="149" y="143" width="8" height="2" fill="#e8290b" opacity="0.30" rx="1"/>
  <rect x="160" y="143" width="8" height="2" fill="#e8290b" opacity="0.30" rx="1"/>
  <rect x="171" y="143" width="8" height="2" fill="#e8290b" opacity="0.30" rx="1"/>
  <rect x="182" y="143" width="8" height="2" fill="#e8290b" opacity="0.30" rx="1"/>
  <rect x="193" y="143" width="8" height="2" fill="#e8290b" opacity="0.30" rx="1"/>
  <rect x="204" y="143" width="8" height="2" fill="#e8290b" opacity="0.30" rx="1"/>
  <rect x="215" y="143" width="8" height="2" fill="#e8290b" opacity="0.30" rx="1"/>
  <rect x="226" y="143" width="8" height="2" fill="#e8290b" opacity="0.30" rx="1"/>
  <rect x="237" y="143" width="8" height="2" fill="#e8290b" opacity="0.30" rx="1"/>
  <rect x="248" y="143" width="8" height="2" fill="#e8290b" opacity="0.31" rx="1"/>
  <rect x="259" y="136" width="8" height="9" fill="#e8290b" opacity="0.64" rx="1"/>
  <rect x="270" y="125" width="8" height="20" fill="#e8290b" opacity="1.00" rx="1"/>
  <rect x="281" y="138" width="8" height="7" fill="#e8290b" opacity="0.57" rx="1"/>
  <text x="28" y="162" font-family="'Courier New',monospace" font-size="7.5" fill="#333" letter-spacing="1">REPOS (incl. private)</text>
  <text x="210" y="162" font-family="Georgia,serif" font-size="13" fill="#f4f3ef" opacity=".7" text-anchor="end">4</text>
  <text x="28" y="178" font-family="'Courier New',monospace" font-size="7.5" fill="#333" letter-spacing="1">COMMITS 2026</text>
  <text x="210" y="178" font-family="Georgia,serif" font-size="13" fill="#f4f3ef" opacity=".7" text-anchor="end">106</text>
  <text x="28" y="194" font-family="'Courier New',monospace" font-size="7.5" fill="#333" letter-spacing="1">FOLLOWERS</text>
  <text x="210" y="194" font-family="Georgia,serif" font-size="13" fill="#f4f3ef" opacity=".7" text-anchor="end">2</text>

  <!-- ═══ BLOCK 2: Streak ═══ -->
  <text x="312" y="36" font-family="'Courier New',monospace" font-size="8" fill="#444" letter-spacing="2.5">STREAK</text>
  <text x="312" y="96" font-family="Georgia,serif" font-size="62" fill="#e8290b" font-weight="700">1</text>
  <text x="398" y="84" font-family="'Courier New',monospace" font-size="10" fill="#e8290b" opacity=".6">days</text>
  <text x="312" y="116" font-family="'Courier New',monospace" font-size="8" fill="#555">current streak</text>
  <text x="312" y="152" font-family="'Courier New',monospace" font-size="7.5" fill="#333" letter-spacing="1">LONGEST STREAK</text>
  <text x="555" y="152" font-family="Georgia,serif" font-size="22" fill="#f4f3ef" opacity=".5" text-anchor="end">5 <tspan font-size="11" fill="#555">days</tspan></text>
  <text x="312" y="176" font-family="'Courier New',monospace" font-size="7.5" fill="#333" letter-spacing="1">PULL REQUESTS</text>
  <text x="555" y="176" font-family="Georgia,serif" font-size="13" fill="#f4f3ef" opacity=".5" text-anchor="end">0</text>
  <text x="312" y="194" font-family="'Courier New',monospace" font-size="7.5" fill="#333" letter-spacing="1">ISSUES</text>
  <text x="555" y="194" font-family="Georgia,serif" font-size="13" fill="#f4f3ef" opacity=".5" text-anchor="end">0</text>

  <!-- ═══ BLOCK 3: Languages ═══ -->
  <text x="604" y="36" font-family="'Courier New',monospace" font-size="8" fill="#444" letter-spacing="2.5">TOP LANGUAGES</text>
    <text x="604" y="55" font-family="'Courier New',monospace" font-size="9" fill="#888">Kotlin</text>
  <rect x="604" y="61" width="220" height="5" rx="2" fill="#1a1a1a"/>
  <rect x="604" y="61" width="193" height="5" rx="2" fill="url(#barRed)" opacity=".85"/>
  <text x="828" y="67" font-family="'Courier New',monospace" font-size="8" fill="#555" text-anchor="end">87.7%</text>
  <text x="604" y="87" font-family="'Courier New',monospace" font-size="9" fill="#888">CSS</text>
  <rect x="604" y="93" width="220" height="5" rx="2" fill="#1a1a1a"/>
  <rect x="604" y="93" width="12" height="5" rx="2" fill="url(#barRed)" opacity=".85"/>
  <text x="828" y="99" font-family="'Courier New',monospace" font-size="8" fill="#555" text-anchor="end">5.8%</text>
  <text x="604" y="119" font-family="'Courier New',monospace" font-size="9" fill="#888">TypeScript</text>
  <rect x="604" y="125" width="220" height="5" rx="2" fill="#1a1a1a"/>
  <rect x="604" y="125" width="7" height="5" rx="2" fill="url(#barRed)" opacity=".85"/>
  <text x="828" y="131" font-family="'Courier New',monospace" font-size="8" fill="#555" text-anchor="end">3.2%</text>
  <text x="604" y="151" font-family="'Courier New',monospace" font-size="9" fill="#888">JavaScript</text>
  <rect x="604" y="157" width="220" height="5" rx="2" fill="#1a1a1a"/>
  <rect x="604" y="157" width="4" height="5" rx="2" fill="url(#barRed)" opacity=".85"/>
  <text x="828" y="163" font-family="'Courier New',monospace" font-size="8" fill="#555" text-anchor="end">2.1%</text>
  <text x="604" y="183" font-family="'Courier New',monospace" font-size="9" fill="#888">Python</text>
  <rect x="604" y="189" width="220" height="5" rx="2" fill="#1a1a1a"/>
  <rect x="604" y="189" width="2" height="5" rx="2" fill="url(#barRed)" opacity=".85"/>
  <text x="828" y="195" font-family="'Courier New',monospace" font-size="8" fill="#555" text-anchor="end">1.1%</text>

  <!-- updated timestamp -->
  <text x="604" y="200" font-family="'Courier New',monospace" font-size="7" fill="#222" letter-spacing="1">updated: 2026-03-05 04:59 UTC</text>

  <rect x="0" y="206" width="860" height="4" rx="2" fill="#e8290b" opacity=".6"/>
</svg>
